<svg width="64" height="64" viewBox="0 0 64 64" fill="none" xmlns="http://www.w3.org/2000/svg">
<g clip-path="url(#clip0_125_4026)">
<path d="M48.0774 42.5025C45.6592 46.155 42.0267 48.9549 37.7145 50.2968L37.7133 50.296L32.6129 45.1532L32.0312 40.9614L40.1779 34.6409L45.2141 37.0615L48.0774 42.5025Z" fill="#5FCEFF"/>
<path d="M48.0772 42.5019L45.2139 37.0608L51.2037 33.612C50.9096 36.8618 49.8036 39.8986 48.0772 42.5019Z" fill="#FF4893"/>
<path d="M51.2036 33.6122L45.2139 37.061L40.1777 34.6405L36.5967 24.8858L38.9464 21.4264L39.0002 21.4212L47.6757 20.6714L47.7121 20.6459C49.7378 23.4886 51.016 26.9156 51.2466 30.6554C51.3085 31.6557 51.2925 32.643 51.2036 33.6122Z" fill="#5FCEFF"/>
<path d="M37.7132 50.2957L37.7144 50.2965C36.2606 50.75 34.7294 51.0364 33.1424 51.1338C31.2817 51.2484 29.4659 51.095 27.7333 50.7064L32.6128 45.1529L37.7132 50.2957ZM40.1778 34.6407L32.0311 40.9611L23.5059 35.171L26.3779 25.268L36.5969 24.886L40.1778 34.6407Z" fill="#FF4893"/>
<path d="M32.0309 40.9614L32.6126 45.1531L27.7332 50.7067C23.0984 49.6733 19.0561 46.9626 16.3233 43.2108L19.7821 36.4389L23.5058 35.1712L32.0309 40.9614Z" fill="#5FCEFF"/>
<path d="M47.7119 20.6466L47.6755 20.6722L39 21.422L38.9462 21.4271L36.4321 13.0359C41.0297 14.1291 45.0271 16.8753 47.7119 20.6466Z" fill="#FF4893"/>
<path d="M38.9462 21.4268L36.5966 24.8862L26.3776 25.2682L22.6582 21.7421L23.6698 14.8133L23.4588 14.4773C25.6797 13.3903 28.1475 12.7141 30.7694 12.5523C32.721 12.4316 34.6235 12.6058 36.4322 13.0356L38.9462 21.4268Z" fill="#5FCEFF"/>
<path d="M26.3775 25.2679L23.5056 35.1709L19.7819 36.4386L12.6932 33.4104C12.6824 33.2833 12.6735 33.1557 12.6655 33.027C12.3925 28.6005 13.6345 24.4304 15.9411 21.0216L15.9423 21.0224L22.6581 21.7418L26.3775 25.2679Z" fill="#5FCEFF"/>
<path d="M19.7823 36.4388L16.3235 43.2107C14.2973 40.4301 12.9898 37.0769 12.6936 33.4106L19.7823 36.4388ZM15.9415 21.0218C17.82 18.2457 20.4067 15.9733 23.4592 14.4772L23.6702 14.8132L22.6585 21.742L15.9427 21.0226L15.9415 21.0218Z" fill="#FF4893"/>
<path d="M43.3686 15.0151L43.368 15.0147C41.3189 13.623 39.0636 12.6282 36.6648 12.0579C34.722 11.596 32.7177 11.4249 30.7075 11.5492C28.0102 11.7157 25.4226 12.3972 23.017 13.5747C19.8356 15.1339 17.1011 17.5143 15.1087 20.4588C12.5754 24.2028 11.3836 28.5704 11.6623 33.0895C11.6708 33.2265 11.6803 33.3616 11.6918 33.4963C11.9911 37.2182 13.3127 40.785 15.5109 43.8033C16.8946 45.7043 18.5971 47.3513 20.5429 48.6713C22.6702 50.116 25.0158 51.1312 27.5144 51.6882C29.3713 52.1046 31.2859 52.2559 33.2041 52.1378C34.8369 52.0385 36.4517 51.7427 38.0137 51.2568C42.4588 49.8736 46.3307 46.9617 48.9156 43.058C50.7662 40.2672 51.9039 37.0324 52.205 33.7035C52.2992 32.6697 52.3143 31.6302 52.2501 30.5942C52.0156 26.7901 50.7294 23.1485 48.531 20.0634C47.1248 18.0865 45.3765 16.3768 43.3686 15.0151ZM21.6724 47.008C19.9181 45.818 18.3833 44.3331 17.1358 42.6192C15.1566 39.903 13.9669 36.691 13.6954 33.3301C13.6848 33.2063 13.6765 33.0862 13.669 32.965C13.4178 28.8937 14.4917 24.9585 16.7738 21.5856C18.5701 18.9311 21.0347 16.7854 23.9014 15.3803C26.0676 14.32 28.3994 13.7062 30.8314 13.556C32.6437 13.444 34.4499 13.5981 36.1997 14.014C38.3602 14.5278 40.392 15.4241 42.2384 16.6781L42.2389 16.6784C44.0491 17.906 45.6253 19.4473 46.8929 21.2298C48.8731 24.0086 50.0316 27.2895 50.2429 30.7181C50.3009 31.6522 50.2873 32.5893 50.2023 33.5213C49.9309 36.5199 48.9064 39.4332 47.2391 41.9473C44.9089 45.4669 41.4203 48.0911 37.4153 49.3373C36.0075 49.7751 34.552 50.0416 33.0804 50.1311C31.351 50.2377 29.6259 50.1014 27.9528 49.7263C25.7018 49.2242 23.5892 48.3098 21.6724 47.008Z" fill="#4F46A3"/>
<path d="M37.1616 24.0547C36.9844 23.9342 36.7734 23.8736 36.5593 23.8817L26.3403 24.2637C26.1291 24.2716 25.9258 24.3459 25.7592 24.4759C25.5926 24.606 25.4713 24.7853 25.4124 24.9883L22.5405 34.8913C22.4814 35.0951 22.4883 35.3125 22.5603 35.5121C22.6323 35.7118 22.7656 35.8836 22.9412 36.0028L31.4664 41.7929C31.642 41.9122 31.8508 41.9728 32.0629 41.9661C32.2751 41.9594 32.4797 41.8858 32.6474 41.7557L40.794 35.4351C40.9625 35.3043 41.085 35.1233 41.1439 34.9182C41.2028 34.7132 41.1949 34.4947 41.1215 34.2944L37.5406 24.5398C37.4681 24.3424 37.3356 24.1727 37.1616 24.0547ZM27.1411 26.2457L35.9048 25.9181L38.9809 34.2971L31.9919 39.7194L24.675 34.7499L27.1411 26.2457ZM36.9972 12.204C36.7766 12.0542 36.5055 11.998 36.2435 12.048C35.9816 12.0979 35.7502 12.2499 35.6002 12.4704C35.4153 12.7427 35.3817 13.0732 35.4808 13.3622L37.9834 21.7154C38.0599 21.9708 38.2348 22.1854 38.4695 22.3119C38.7043 22.4384 38.9796 22.4664 39.235 22.3899C39.4904 22.3134 39.705 22.1385 39.8315 21.9038C39.958 21.669 39.986 21.3937 39.9095 21.1383L37.3955 12.7471C37.3291 12.5257 37.1884 12.3339 36.9972 12.204ZM24.2344 13.9811C24.0935 13.8855 23.9306 13.8273 23.761 13.8119C23.5913 13.7965 23.4206 13.8244 23.2647 13.8931C23.1089 13.9618 22.9731 14.0689 22.87 14.2045C22.7669 14.3401 22.6999 14.4996 22.6753 14.6681L21.8034 20.6397L16.0496 20.0233C15.9184 20.0092 15.7856 20.0211 15.659 20.0584C15.5323 20.0956 15.4142 20.1574 15.3115 20.2403C15.2087 20.3232 15.1233 20.4255 15.0601 20.5413C14.9969 20.6572 14.9571 20.7844 14.943 20.9157C14.929 21.047 14.9409 21.1797 14.9781 21.3064C15.0153 21.433 15.0772 21.5511 15.16 21.6539C15.2429 21.7566 15.3452 21.8421 15.4611 21.9053C15.577 21.9685 15.7042 22.0083 15.8355 22.0223L22.5512 22.7419C22.8097 22.7696 23.0688 22.6961 23.2743 22.5368C23.4797 22.3776 23.6155 22.1449 23.653 21.8877L24.6647 14.9589C24.6921 14.7719 24.6663 14.5811 24.5902 14.4081C24.5141 14.2352 24.3908 14.0872 24.2344 13.9811ZM20.3471 35.6072C20.294 35.5711 20.2372 35.54 20.1772 35.5143L13.0885 32.4862C12.9669 32.4333 12.8361 32.405 12.7035 32.4029C12.5709 32.4008 12.4393 32.4249 12.3161 32.4739C12.1929 32.5228 12.0806 32.5957 11.9857 32.6882C11.8908 32.7808 11.8151 32.8912 11.763 33.0131C11.7109 33.135 11.6835 33.266 11.6822 33.3986C11.681 33.5312 11.706 33.6627 11.7558 33.7856C11.8056 33.9084 11.8792 34.0202 11.9723 34.1145C12.0655 34.2088 12.1764 34.2838 12.2987 34.3351L18.3974 36.9403L15.4283 42.7535C15.3104 42.9906 15.2908 43.2646 15.3738 43.516C15.4567 43.7674 15.6354 43.9759 15.8712 44.0964C16.1069 44.2168 16.3807 44.2393 16.633 44.1591C16.8853 44.0789 17.0957 43.9025 17.2187 43.668L20.6775 36.8961C20.7889 36.6779 20.8169 36.4265 20.756 36.1892C20.6952 35.9518 20.5497 35.7449 20.3471 35.6072ZM51.7695 32.7782C51.6087 32.669 51.4197 32.6089 51.2253 32.6051C51.031 32.6013 50.8397 32.6541 50.6748 32.7569L44.7123 36.1902C44.487 36.3199 44.3207 36.5319 44.2483 36.7816C44.176 37.0314 44.2032 37.2994 44.3244 37.5295L47.1876 42.9705C47.2488 43.0879 47.3325 43.192 47.434 43.277C47.5356 43.3619 47.6528 43.426 47.7792 43.4655C47.9055 43.505 48.0384 43.5191 48.1702 43.5071C48.302 43.4952 48.4302 43.4573 48.5473 43.3956C48.6644 43.334 48.7682 43.2498 48.8528 43.148C48.9373 43.0461 49.0009 42.9286 49.0399 42.8021C49.0788 42.6756 49.0925 42.5426 49.0799 42.4109C49.0674 42.2791 49.029 42.1511 48.9669 42.0342L46.5542 37.4496L51.7054 34.4835C51.7431 34.4619 51.7795 34.4375 51.814 34.4112C52.2553 34.0741 52.3413 33.4419 52.0043 33.0007C51.9385 32.9144 51.8592 32.8393 51.7695 32.7782ZM33.1776 44.3214C32.9748 44.1838 32.7288 44.125 32.4858 44.156C32.2427 44.1869 32.0193 44.3055 31.8575 44.4895L26.9779 50.043C26.8838 50.1501 26.8135 50.276 26.7718 50.4123C26.73 50.5487 26.7177 50.6923 26.7356 50.8337C26.7536 50.9752 26.8014 51.1112 26.876 51.2327C26.9505 51.3543 27.05 51.4586 27.1679 51.5388C27.3737 51.6787 27.624 51.7373 27.8705 51.7033C28.117 51.6692 28.3421 51.5448 28.5022 51.3543L32.6572 46.6255L36.9995 51.0038C37.1877 51.191 37.4423 51.2962 37.7078 51.2965C37.9732 51.2967 38.228 51.1919 38.4165 51.005C38.605 50.818 38.7119 50.5641 38.7139 50.2987C38.7158 50.0332 38.6127 49.7777 38.427 49.588L33.3266 44.4452C33.2807 44.3989 33.2308 44.3575 33.1776 44.3214Z" fill="#4F46A3"/>
<path d="M39.511 20.5952C39.2904 20.4454 39.0194 20.3893 38.7575 20.4394C38.4957 20.4894 38.2644 20.6414 38.1146 20.862L35.765 24.3214C35.6152 24.542 35.5591 24.813 35.6092 25.0749C35.6592 25.3368 35.8112 25.5681 36.0318 25.7179C36.2523 25.8677 36.5234 25.9237 36.7852 25.8737C37.0471 25.8236 37.2784 25.6716 37.4282 25.4511L39.7778 21.9916C39.852 21.8824 39.9039 21.7596 39.9307 21.6304C39.9574 21.5011 39.9584 21.3678 39.9337 21.2381C39.9089 21.1084 39.8588 20.9849 39.7863 20.8746C39.7138 20.7643 39.6202 20.6693 39.511 20.5952ZM45.7797 36.2304C45.7387 36.2026 45.6953 36.1775 45.6492 36.1554L40.613 33.7348C40.3727 33.6193 40.0964 33.604 39.8448 33.6922C39.5932 33.7805 39.3869 33.9651 39.2714 34.2054C39.1559 34.4457 39.1406 34.722 39.2289 34.9736C39.3171 35.2252 39.5017 35.4314 39.742 35.5469L44.7782 37.9675C45.0068 38.0777 45.2686 38.0973 45.5111 38.0225C45.7536 37.9476 45.9588 37.7839 46.0856 37.564C46.2123 37.3442 46.2512 37.0845 46.1945 36.8372C46.1378 36.5898 45.9896 36.3731 45.7797 36.2304ZM32.5956 40.1295C32.4347 40.0203 32.2456 39.9601 32.0511 39.9562C31.8567 39.9523 31.6653 40.0049 31.5002 40.1075C31.3351 40.2102 31.2032 40.3586 31.1207 40.5346C31.0382 40.7107 31.0085 40.9069 31.0352 41.0996L31.6169 45.2913C31.6536 45.5554 31.7936 45.7941 32.0063 45.955C32.2189 46.1158 32.4867 46.1856 32.7508 46.1489C33.0149 46.1123 33.2537 45.9722 33.4145 45.7596C33.5753 45.5469 33.6451 45.2791 33.6085 45.015L33.0268 40.8233C33.0076 40.6839 32.9592 40.5501 32.885 40.4305C32.8107 40.311 32.7121 40.2085 32.5956 40.1295ZM24.0712 34.34C23.9425 34.2523 23.7951 34.1957 23.6407 34.1748C23.4863 34.1539 23.3292 34.1692 23.1818 34.2195L19.4581 35.4872C19.2057 35.5731 18.9978 35.7558 18.88 35.995C18.7623 36.2342 18.7445 36.5104 18.8304 36.7628C18.9163 37.0152 19.099 37.2232 19.3382 37.3409C19.5775 37.4586 19.8537 37.4765 20.1061 37.3905L23.8297 36.1229C24.0066 36.0627 24.1632 35.9544 24.282 35.8101C24.4008 35.6658 24.477 35.4913 24.502 35.3062C24.5271 35.121 24.5001 34.9325 24.424 34.7618C24.3479 34.5912 24.2257 34.4451 24.0712 34.34ZM23.2221 20.9098C23.0131 20.768 22.7584 20.71 22.5087 20.7475C22.2589 20.7849 22.0324 20.9149 21.8742 21.1118C21.7159 21.3086 21.6376 21.5578 21.6547 21.8098C21.6718 22.0617 21.7831 22.298 21.9665 22.4716L25.6859 25.9977C25.8798 26.1789 26.1375 26.276 26.4027 26.268C26.6679 26.2599 26.9192 26.1474 27.1018 25.9548C27.2843 25.7623 27.3833 25.5054 27.3772 25.2401C27.3711 24.9748 27.2604 24.7227 27.0692 24.5387L23.3498 21.0126C23.3101 20.9749 23.2674 20.9405 23.2221 20.9098Z" fill="#4F46A3"/>
<path d="M48.24 19.8398C48.0491 19.7099 47.8191 19.6499 47.5891 19.6701L38.9136 20.4199C38.6511 20.4468 38.4098 20.5759 38.2416 20.7791C38.0734 20.9824 37.9919 21.2437 38.0146 21.5065C38.0373 21.7694 38.1624 22.0128 38.3629 22.1843C38.5635 22.3557 38.8234 22.4415 39.0866 22.423L47.762 21.6732C47.9689 21.6553 48.1651 21.5737 48.3238 21.4398C48.4824 21.3059 48.5957 21.1261 48.6481 20.9252C48.7005 20.7243 48.6893 20.5121 48.6163 20.3177C48.5432 20.1234 48.4117 19.9564 48.24 19.8398Z" fill="#4F46A3"/>
</g>
<defs>
<clipPath id="clip0_125_4026">
<rect width="46" height="46" fill="white" transform="matrix(0.827241 0.561847 0.561847 -0.827241 0 38.0531)"/>
</clipPath>
</defs>
</svg>
