<svg width="76" height="76" viewBox="0 0 76 76" fill="none" xmlns="http://www.w3.org/2000/svg">
<g clip-path="url(#clip0_122_3903)">
<path d="M71.7276 22.6339C74.9436 35.0371 71.4323 48.5397 71.3829 48.7476C71.3918 48.6817 71.4703 47.7115 71.4703 47.7115C72.5014 39.3793 69.9884 34.68 69.9884 34.68C71.6845 41.8886 68.5546 45.9989 66.7191 47.7115C66.0313 48.3524 65.5195 48.8996 65.5195 48.8996C65.4664 48.8996 65.4195 48.0345 65.3801 47.7115C64.1465 37.5376 69.987 24.5783 69.987 24.5783C66.2503 27.8995 63.9868 38.7079 62.9912 44.6549C64.1782 34.633 62.216 30.0173 62.216 30.0173C62.9912 38.3989 61.0443 45.2781 60.2272 47.7115C60.0221 48.3245 59.8852 48.8996 59.8852 48.8996C59.7902 48.8996 59.7055 48.0598 59.6243 47.7115C58.2208 41.653 58.9137 26.7139 58.9137 26.7139C57.5204 30.1985 56.6818 37.3589 56.2335 42.5562C56.2362 33.7452 53.4734 28.462 53.4734 28.462C56.3881 39.7302 52.5019 47.1123 52.5019 47.1123C53.2783 37.0107 50.5588 34.485 50.5588 34.485C52.5678 38.6662 48.0332 46.9199 48.0332 46.9199C46.2852 36.0405 50.5588 20.691 50.5588 20.691C47.9711 24.3376 46.4523 33.4653 45.6568 40.1014C45.5719 31.6716 42.0519 28.462 42.0519 28.462C45.5897 37.0107 42.0112 47.5012 42.0112 47.5012C42.4003 37.3994 39.8731 32.5406 39.8731 32.5406C40.1909 37.0006 36.5962 44.9768 35.289 47.7103C35.0015 48.3094 34.8216 48.8984 34.8216 48.8984C34.7469 48.8984 34.6836 48.0459 34.6253 47.7103C33.3193 40.2066 35.987 24.187 35.987 24.187C32.9292 26.5658 31.0597 43.4834 30.6378 47.7116C30.577 48.3209 30.5466 48.8998 30.5466 48.8998C30.5289 48.8998 30.5086 48.0333 30.4897 47.7116C30.0869 41.144 30.1312 33.8567 30.1312 33.8567C28.8456 35.2679 27.8322 48.8984 27.8259 48.8984L27.86 47.7103C28.696 30.7382 25.689 25.1598 25.689 25.1598C27.1608 33.4983 24.5033 44.4512 23.6268 47.7103C23.4622 48.3246 23.3583 48.8984 23.3583 48.8984C23.1657 48.8984 23.0011 48.0637 22.8567 47.7103C20.8161 42.707 23.3583 31.1815 23.3583 31.1815C21.0124 34.1962 20.2106 39.5187 19.9497 43.5023C20.1651 23.0875 18.5007 16.416 18.5007 16.416C19.6977 23.7778 17.1264 43.1933 16.4981 47.7103C16.4614 47.9764 16.4651 47.9484 16.4981 47.7103H16.4475C16.9123 40.8373 14.6147 28.462 14.6147 28.462C14.6147 33.8567 13.3759 44.479 12.9844 47.7103C12.9109 48.3183 12.8667 48.8984 12.8667 48.8984C12.6679 48.502 12.5716 48.0372 12.4398 47.7103C9.4795 38.9157 12.8667 24.187 12.8667 24.187C8.35503 30.2036 7.86731 43.9772 7.82042 47.7101C7.81538 48.0763 7.81658 47.9977 7.82042 47.7101C7.82042 47.7101 8.0509 49.139 7.41892 47.7101C5.25172 43.0272 7.9395 28.4618 7.9395 28.4618C5.27688 31.2916 4.19401 44.1013 3.95465 47.7101C3.91544 48.3118 3.86603 48.8983 3.86603 48.8983C3.80007 48.8983 3.72801 48.0307 3.67343 47.7101C1.55934 35.3133 7.82426 21.5826 7.82426 21.5826C1.60875 25.4687 0 48.897 0 48.897V59.584H76V47.7101C76.0114 25.964 71.7276 22.6339 71.7276 22.6339Z" fill="#009C3A"/>
</g>
<defs>
<clipPath id="clip0_122_3903">
<rect width="76" height="76" fill="white"/>
</clipPath>
</defs>
</svg>
