<svg width="117" height="67" viewBox="0 0 117 67" fill="none" xmlns="http://www.w3.org/2000/svg">
<path d="M63.1688 36.5314C64.1849 36.4136 65.2548 36.4897 66.2769 36.4893C67.4886 36.4888 68.7825 36.3783 69.9805 36.6006C70.4677 36.6911 71.0332 36.8535 71.4362 37.2341C71.8076 37.5849 71.9782 38.1743 72.0275 38.7473C72.0725 39.2686 72.0099 39.7929 71.9339 40.3045C71.6936 41.9185 71.2883 43.5352 70.9551 45.1226C70.62 46.7197 70.3405 48.4103 69.8894 49.9584C69.6876 50.6508 69.412 51.4113 69.0397 51.979C68.271 53.1518 67.1219 53.4511 65.9968 53.5843C64.9175 53.7067 63.796 53.6345 62.7124 53.635C61.5346 53.6354 60.3053 53.7307 59.138 53.5259C58.6698 53.4439 58.0711 53.2906 57.6873 52.9169C57.3273 52.5664 57.1525 52.0109 57.1018 51.4459C57.0512 50.8801 57.1232 50.2995 57.2043 49.7435C57.4513 48.0526 57.8774 46.3574 58.2262 44.6956C58.5466 43.1689 58.8112 41.5421 59.2469 40.0662C59.4406 39.4101 59.7011 38.7469 60.0437 38.1986C60.8111 36.9699 62.0225 36.678 63.1688 36.5314Z" fill="#1B7A3F"/>
<path d="M63.1713 40.9126C64.6838 40.959 66.2029 40.9242 67.7163 40.9253L66.0193 48.992L61.4492 48.9871L62.5433 43.7417C62.7373 42.8132 62.8883 41.7988 63.1713 40.9126Z" fill="#AED7F1"/>
<path d="M45.6602 36.49C49.9353 36.5706 54.2196 36.4948 58.4957 36.4961L54.9105 53.6306L50.7293 53.6346L52.5129 45.1204C52.8131 43.7237 53.1077 42.3246 53.3962 40.9236C51.909 40.9264 50.4054 40.9852 48.9204 40.8998C48.1015 45.1607 47.1309 49.3897 46.255 53.6329L42.0708 53.6334C43.3151 47.946 44.5362 42.2189 45.6602 36.49Z" fill="#1B7A3F"/>
<path d="M109.235 36.4931L113.352 36.4948L111.533 45.2017C111.157 46.9956 110.791 49.5118 110.13 51.1004C109.636 52.285 108.86 52.947 107.888 53.3218C106.248 53.8429 104.402 53.6356 102.715 53.6335L96.9536 53.6348C97.2714 52.1344 97.5829 50.6318 97.8882 49.1271L106.535 49.3998L107.079 46.783C105.77 46.7575 101.356 46.9709 100.351 46.5964C99.9186 46.4355 99.5306 46.1041 99.3125 45.5851C99.1021 45.0847 99.0344 44.467 99.0665 43.9037C99.1235 42.8996 99.4198 41.851 99.6256 40.8801L100.543 36.4924L104.66 36.4964L103.233 43.3359L107.806 43.3387L109.235 36.4931Z" fill="#1B7A3F"/>
<path d="M74.2126 36.494L80.6372 36.4913C81.8976 36.4913 83.2365 36.3696 84.4816 36.6278C84.9115 36.717 85.3107 36.857 85.6292 37.2661C85.97 37.7039 86.0901 38.2809 86.099 38.8871C86.1184 40.2102 85.4903 43.1456 85.0348 44.3262C84.8523 44.8056 84.6096 45.2426 84.3165 45.6188C83.15 47.1096 81.476 46.9352 79.9623 46.9339L77.3668 46.9274L76.1346 46.9295L74.7354 53.6313L70.6187 53.6332L74.2126 36.494Z" fill="#1B7A3F"/>
<path d="M77.4148 40.9023C78.8487 40.9812 80.3005 40.9251 81.7365 40.9241C81.577 41.6864 81.4543 42.5528 81.2217 43.2802C79.7877 43.3059 78.3509 43.2817 76.9165 43.2817C77.0742 42.4847 77.2317 41.69 77.4148 40.9023Z" fill="#AED7F1"/>
<path d="M35.6044 36.5309C36.6297 36.4208 37.6915 36.4917 38.7221 36.4915L44.424 36.4936C44.128 37.9745 43.8247 39.4529 43.5144 40.9287L35.6326 40.912L33.9317 48.9861L40.9856 48.9857L41.8091 48.9866C41.4962 50.5235 41.2205 52.1266 40.8266 53.6315L35.1288 53.6342C33.9694 53.6342 32.7634 53.7192 31.6118 53.5343C31.1238 53.456 30.5148 53.3225 30.1196 52.9252C29.8054 52.6093 29.5645 52.1624 29.5192 51.6413C29.4698 51.0719 29.5449 50.448 29.627 49.8896C29.879 48.1754 30.3071 46.4619 30.6606 44.7775C30.9933 43.1918 31.2673 41.499 31.7247 39.9677C31.9284 39.2865 32.2004 38.6192 32.5616 38.0549C33.3086 36.8878 34.5123 36.6657 35.6044 36.5309Z" fill="#1B7A3F"/>
<path d="M87.5542 36.4941L99.834 36.4952C99.5597 37.9805 99.201 39.4378 98.9353 40.9263C97.5778 40.9278 96.2124 40.9655 94.856 40.9006C94.3176 43.7272 93.681 46.5363 93.0923 49.3467L92.1929 53.6327L88.0155 53.6358C88.9627 49.4293 89.816 45.1634 90.6775 40.9255L86.624 40.9145L87.5542 36.4941Z" fill="#1B7A3F"/>
<path d="M91.335 21.6233C92.454 21.7247 93.602 21.653 94.725 21.6613C94.6695 23.6972 94.7773 25.7956 94.5416 27.8122C95.24 25.7041 96.1509 23.6744 96.9787 21.645C98.1084 21.6925 99.2486 21.6516 100.379 21.6518C99.9099 25.5634 99.589 29.5268 99.195 33.4542L96.3792 33.4557C96.5761 31.3404 96.7916 29.199 97.0992 27.1059C96.7633 27.7976 96.4956 28.5727 96.208 29.3007L94.578 33.457L92.1754 33.4521C92.2245 31.282 92.2421 29.1008 92.3506 26.9344C91.749 29.1326 91.0257 31.2734 90.389 33.4553L87.543 33.4534C88.8428 29.5303 90.0437 25.5514 91.335 21.6233Z" fill="#1B7A3F"/>
<path d="M73.3136 21.7002C74.0283 21.5677 74.8299 21.6464 75.5534 21.6472L79.6874 21.6563L77.8871 30.2665L78.7465 30.2684L78.0812 33.4611L75.3038 33.4531L67.9521 33.4504C68.181 32.3925 68.4027 31.3319 68.617 30.269L69.4952 30.268C69.7812 28.7698 70.6575 23.9812 71.2731 22.9432C71.7931 22.0659 72.5086 21.8221 73.3136 21.7002Z" fill="#1B7A3F"/>
<path d="M73.445 24.696L76.1888 24.6994L75.0177 30.2717L72.2876 30.266C72.6874 28.4141 73.0731 26.5574 73.445 24.696Z" fill="#AED7F1"/>
<path d="M43.2509 21.7014C44.0475 21.5725 44.9097 21.6455 45.7132 21.6461L50.0239 21.6556L47.5538 33.4564L44.7046 33.4579L45.5076 29.6842L45.7081 28.733L42.5551 28.7238L41.5663 33.4594L38.7144 33.4518C39.1625 31.4418 40.4604 24.1571 41.182 22.9301C41.6919 22.0629 42.4602 21.8136 43.2509 21.7014Z" fill="#1B7A3F"/>
<path d="M43.4225 24.5635L46.569 24.5728L46.1893 26.382C45.1412 26.3648 44.093 26.362 43.0449 26.3736L43.4225 24.5635Z" fill="#AED7F1"/>
<path d="M62.9233 21.7004C63.6711 21.5636 64.507 21.6452 65.2635 21.6458L69.6893 21.6542L67.2104 33.4605L64.3762 33.4489L65.1552 29.7368L65.3596 28.7369L62.2013 28.7295C61.9486 30.3106 61.556 31.9016 61.2207 33.4584L58.3867 33.4576C58.7692 31.6251 60.148 24.0905 60.8523 22.9226C61.3729 22.059 62.126 21.8194 62.9233 21.7004Z" fill="#1B7A3F"/>
<path d="M63.0905 24.5667L66.245 24.5694C66.1198 25.1773 65.9962 25.783 65.8408 26.3795C64.8025 26.3336 63.7547 26.3679 62.7153 26.3648C62.8427 25.7664 62.9678 25.1669 63.0905 24.5667Z" fill="#AED7F1"/>
<path d="M108.915 21.6867C109.785 21.6099 110.672 21.6487 111.543 21.6489L116.046 21.6538C115.305 25.6129 114.354 29.5072 113.602 33.4634L110.738 33.4474C111.016 32.1744 111.636 29.8531 111.732 28.639L108.867 28.631C108.612 29.8645 108.376 31.7313 107.672 32.658C106.877 33.7053 105.296 33.4624 104.259 33.4449C104.452 32.558 104.64 31.6698 104.823 30.7798L105.588 30.7926C105.712 30.2021 105.821 29.5551 106.03 29.0038C106.341 28.182 106.836 27.8319 107.477 27.5556C107.349 27.4753 107.215 27.3951 107.094 27.2964C106.855 27.1018 106.732 26.7719 106.676 26.4252C106.517 25.4545 106.996 23.6041 107.437 22.8057C107.818 22.1133 108.288 21.8231 108.915 21.6867Z" fill="#1B7A3F"/>
<path d="M109.685 24.6865C110.644 24.7422 111.617 24.703 112.578 24.7059L112.222 26.4246H109.335L109.685 24.6865Z" fill="#AED7F1"/>
<path d="M81.3038 21.6372C82.1997 21.7028 83.1164 21.6541 84.0143 21.6545L89.0531 21.6549C88.8496 22.6754 88.6378 23.693 88.4176 24.7076L83.5355 24.6958L83.2167 26.2391C84.6979 26.2275 86.1791 26.2347 87.6603 26.2606C87.4809 27.0798 87.3218 27.9088 87.1536 28.7321L84.308 28.7228C83.7898 28.7218 83.2453 28.6762 82.7324 28.7593L82.6625 28.8827L82.374 30.2666L87.2499 30.2712C87.0326 31.3373 86.808 32.4008 86.5761 33.4618C83.993 33.4114 81.4056 33.457 78.8218 33.4473C79.699 29.532 80.4842 25.574 81.3038 21.6372Z" fill="#1B7A3F"/>
<path d="M59.7674 21.6416L59.8292 21.6764C59.7764 21.963 56.5635 25.7382 56.1143 26.2547C56.462 26.2741 56.8305 26.3034 57.1669 26.4222C57.5961 26.574 57.9828 26.884 58.1972 27.4026C58.7263 28.6827 57.7388 32.0893 57.4426 33.4599L54.6104 33.4513L55.6175 28.6378L52.4601 28.6317C52.1522 30.1088 51.8932 31.6719 51.5156 33.1182C51.4654 33.3104 51.4845 33.3614 51.34 33.4544L48.605 33.4567C49.4744 29.5377 50.2599 25.5798 51.0857 21.6443L53.9213 21.6545C53.6768 22.8131 53.0791 25.0982 53.021 26.1786L53.097 26.2676C53.5292 26.2167 56.5211 22.3 57.1085 21.6534L59.7674 21.6416Z" fill="#1B7A3F"/>
<path d="M102.765 21.6416C103.685 21.6876 104.615 21.6524 105.536 21.654L103.065 33.4603L100.281 33.451C101.143 29.5284 101.94 25.5777 102.765 21.6416Z" fill="#1B7A3F"/>
<path d="M55.4804 6.06355L58.8109 6.48597L58.9211 6.66625C58.3659 6.73494 57.2529 7.03817 56.6691 7.18733C54.6234 7.71438 52.5962 8.31537 50.5916 8.9892C36.4513 13.739 20.6984 22.8597 11.2438 34.8835C7.99948 39.0094 4.778 44.8701 5.40128 50.3471C5.41891 50.4978 5.43947 50.6482 5.46296 50.7981C6.51305 48.2024 8.16069 45.7882 9.88637 43.6151C17.4739 34.0599 31.1055 24.6382 42.1758 19.8922C44.9752 18.6921 49.609 16.9803 52.6117 17.0652C50.3439 17.5456 48.1764 18.2211 46.0216 19.0948C34.1398 23.9122 17.0182 36.4997 9.94557 47.4106C8.50584 49.6317 7.15608 52.2154 7.05422 54.927C11.1912 61.2644 21.4755 61.9655 28.2102 61.4603C34.6418 60.9778 41.0741 59.4568 47.1781 57.3359C48.8713 56.7504 50.6567 56.1 52.3015 55.3841L52.3227 55.4752C52.1753 55.5171 51.6635 55.7497 51.4999 55.8194C50.93 56.0625 50.3587 56.3022 49.7861 56.5385C48.2412 57.1734 46.6808 57.7677 45.1064 58.3207C36.9501 61.198 28.2961 63.0768 19.6162 62.8229C11.9203 62.5977 1.86666 59.7291 1.48327 50.2549C1.4578 49.6252 1.50447 49.0449 1.53208 48.4164C1.57018 48.236 1.60642 47.8785 1.63537 47.6815C1.6962 47.2606 1.77099 46.8419 1.85962 46.4261C2.049 45.7661 2.1884 45.1121 2.41854 44.4583C4.26898 39.2015 7.89799 34.4135 11.7653 30.5175C20.2643 21.9558 31.037 15.3901 42.0606 10.8508C46.6075 8.96716 51.2888 7.44495 56.0623 6.29779C55.9039 6.28678 55.5547 6.27648 55.4342 6.19148L55.4804 6.06355Z" fill="#1B7A3F"/>
</svg>
